<svg id="Layer_1" data-name="Layer 1" xmlns="http://www.w3.org/2000/svg" viewBox="0 0 981.93 1100"><defs><style>.cls-1{fill:#fff;}</style></defs><polygon class="cls-1" points="333.59 181.72 304.35 181.72 268.67 70.77 233.58 181.72 203.75 181.72 165.15 50 190.69 50 219.74 161.68 254.83 50 283.88 50 318.97 161.31 347.82 50 371.61 50 333.59 181.72"/><path class="cls-1" d="M420,101.38c-18.95,0-25.26,17.67-25.26,34.06,0,16.22,6.31,35,25.26,35,18.76,0,25.25-18.94,25.25-35,0-16.39-6.31-34.06-25.25-34.06m0,82.34c-29.59,0-47.08-19.31-47.08-48.46,0-29,18.58-47.73,47.44-47.73,29.4,0,46.72,18.58,46.72,47.73,0,28.61-18,48.46-47.08,48.46"/><path class="cls-1" d="M533.48,107.75c-17.86,0-24.17,10.21-24.17,27.15v46.82H488.38V117c0-6.37-.18-18.94-.54-27.14h20.38l.54,15.12c6.14-10.75,15.16-15.85,27.78-15.85a48.68,48.68,0,0,1,4.87.37v18.94a64.92,64.92,0,0,0-7.93-.73"/><rect class="cls-1" x="557.28" y="50" width="20.92" height="131.72"/><path class="cls-1" d="M643,101.92c-17.86,0-22.91,18-22.91,33.16,0,16.4,5.59,33.89,24.71,33.89,17.86,0,23.09-18.22,23.09-33.34,0-16-6.31-33.71-24.89-33.71m25.43,79.8-.72-12.94c-7.76,10-15.88,14.58-28.86,14.58-28.68,0-40.23-22.77-40.23-47.92,0-24.59,12.45-47.73,40-47.73,13,0,21.47,4.38,28.87,14.94V50h20.92V155.85c0,8.56,0,16.94.72,25.87Z"/><path class="cls-1" d="M315.15,245.25H297.3v98.56h20.59c33.52,0,47-17.49,47-49.74,0-47.91-32.79-48.82-49.74-48.82m18,114.23c-7.29.73-14.76.91-22.23.91H274.71V228.67h42.08c33.16,0,71.42,10.2,71.42,65.4,0,36.8-16.94,61.22-55,65.41"/><path class="cls-1" d="M449.27,279.87c-15,0-22.55,12-23.81,25.86h45.27c0-13.66-6.49-25.86-21.46-25.86m-24.35,38.8v1.46c0,15.3,7.75,29,24.35,29,11.72,0,19.66-6.92,21.28-18.94h20.21c-3.43,22.77-21.29,32.24-42.21,32.24-29,0-44.19-18.4-44.19-46.45,0-28.79,15-49.56,45.27-49.56,32.47,0,41.49,23.68,41.49,52.29Z"/><path class="cls-1" d="M544.3,362.58c-20,0-37.33-7.66-38.06-31h20.93c.54,11.85,6.49,17.86,18,17.86,8.47,0,17.85-4.56,17.85-14,0-7.83-6.85-11.48-17.49-14.21l-9.38-2.37c-17-4.19-27.6-10.57-27.6-25.69,0-20.22,21.1-27,37.7-27,18.94,0,34.45,7.47,35.35,29H561.08c-.36-10.93-5.59-15.85-16.06-15.85-7.39,0-16.41,3.46-16.41,11.84,0,6.92,6.85,10.57,16.6,13.12L556,307c15.87,4,28,10.2,28,26.05,0,22.41-21.1,29.52-39.68,29.52"/><rect class="cls-1" x="602.33" y="268.39" width="20.92" height="92"/><path class="cls-1" d="M625.81,238.06a13,13,0,1,0-13,13,13,13,0,0,0,13-13"/><path class="cls-1" d="M688.43,280.23c-18.21,0-24.17,17.49-24.17,33.16,0,15.48,6.14,32.06,24,32.06,18.4,0,24-17.49,24-33.34,0-14.76-6.85-31.88-23.81-31.88m44.74,20.95v37c0,37.17-5.59,58.67-45.46,58.67-18.76,0-40.22-5.47-40.22-29.15h20c0,12,9.74,15.85,20,15.85,23.45,0,24.71-18,24.71-37v-2.73c-7,10.38-17.13,15.31-29.76,15.31-27.24,0-40.22-20.78-40.22-46.1,0-24.78,13.34-46.27,40.22-46.27,13.17,0,23.45,5.1,30.3,16.21l.18-14.39h20.75c-.36,14-.54,22-.54,32.61"/><path class="cls-1" d="M817,360.39V310.47c0-14.57-1.26-28.24-18.93-28.24-19.31,0-22.37,19.68-22.37,33.71v44.45H754.81v-71.6c0-6.74-.37-13.48-.55-20.22H775l.36,13.84c7.58-10.2,16.59-15.12,29.76-15.12,23.09,0,32.83,12.76,32.83,35v58.12Z"/><polygon class="cls-1" points="493.91 550 464.67 550 428.99 439.05 393.9 550 364.07 550 325.47 418.28 351.01 418.28 380.06 529.96 415.15 418.28 444.2 418.28 479.29 529.59 508.14 418.28 531.93 418.28 493.91 550"/><path class="cls-1" d="M580.37,469.47c-15.42,0-23.23,12-24.53,25.87h46.65c0-13.66-6.69-25.87-22.12-25.87m-25.09,38.81v1.46c0,15.3,8,29,25.09,29,12.08,0,20.26-6.92,21.93-19h20.82C619.59,542.53,601.19,552,579.63,552c-29.92,0-45.53-18.4-45.53-46.45,0-28.79,15.42-49.56,46.65-49.56,33.45,0,42.74,23.68,42.74,52.29Z"/><path class="cls-1" d="M688.8,469.47c-15.42,0-23.23,12-24.53,25.87h46.64c0-13.66-6.68-25.87-22.11-25.87m-25.09,38.81v1.46c0,15.3,8,29,25.09,29,12.08,0,20.26-6.92,21.93-19h20.81C728,542.53,709.61,552,688.06,552c-29.93,0-45.54-18.4-45.54-46.45,0-28.79,15.43-49.56,46.65-49.56,33.45,0,42.74,23.68,42.74,52.29Z"/><path class="cls-1" d="M818.56,550l-42.74-51.93L815.59,458h26.57l-41.25,39.35L846.06,550ZM754.07,418.28h21.56V550H754.07Z"/><path class="cls-1" d="M892.25,552.18c-20,0-37.34-7.65-38.06-31h20.92c.55,11.84,6.49,17.85,18,17.85,8.48,0,17.86-4.55,17.86-14,0-7.84-6.86-11.48-17.5-14.21l-9.38-2.37c-17-4.19-27.6-10.57-27.6-25.69,0-20.22,21.11-27,37.7-27,18.94,0,34.45,7.47,35.36,29H909c-.36-10.93-5.59-15.86-16-15.86-7.4,0-16.41,3.47-16.41,11.85,0,6.92,6.85,10.57,16.59,13.12L904,496.62c15.87,4,28,10.2,28,26,0,22.41-21.1,29.51-39.68,29.51"/><polygon class="cls-1" points="50 50 484.81 1050 507.21 1050 72.4 50 50 50"/></svg>